<svg width="525" height="261" viewBox="0 0 525 261" fill="none" xmlns="http://www.w3.org/2000/svg">
<rect width="525" height="261" fill="#FF007A"/>
<path d="M217.848 10.36H226.128V12.688H220.512V17.68H224.88V20.032H220.512V28H217.848V10.36ZM233.154 28.24C231.842 28.24 230.746 27.984 229.866 27.472C228.986 26.944 228.338 26.248 227.922 25.384C227.506 24.504 227.298 23.544 227.298 22.504C227.298 21.336 227.538 20.312 228.018 19.432C228.514 18.552 229.194 17.88 230.058 17.416C230.922 16.936 231.898 16.696 232.986 16.696C234.682 16.696 235.938 17.168 236.754 18.112C237.586 19.04 238.002 20.352 238.002 22.048C238.002 22.48 237.978 22.928 237.93 23.392H230.01C230.186 24.368 230.53 25.072 231.042 25.504C231.57 25.936 232.298 26.152 233.226 26.152C233.994 26.152 234.626 26.088 235.122 25.96C235.618 25.832 236.074 25.656 236.49 25.432L237.282 27.28C236.882 27.536 236.338 27.76 235.65 27.952C234.962 28.144 234.13 28.24 233.154 28.24ZM235.482 21.592C235.498 20.6 235.282 19.904 234.834 19.504C234.386 19.088 233.746 18.88 232.914 18.88C231.234 18.88 230.266 19.784 230.01 21.592H235.482ZM240.912 16.984H243.6V28H240.912V16.984ZM242.232 14.92C241.736 14.92 241.32 14.752 240.984 14.416C240.648 14.08 240.48 13.664 240.48 13.168C240.48 12.72 240.648 12.336 240.984 12.016C241.32 11.696 241.736 11.536 242.232 11.536C242.712 11.536 243.12 11.696 243.456 12.016C243.792 12.336 243.96 12.72 243.96 13.168C243.96 13.664 243.792 14.08 243.456 14.416C243.136 14.752 242.728 14.92 242.232 14.92ZM248.148 19.096H246.204V16.984H248.148V12.496L250.764 11.92V16.984H253.308V19.096H250.764V28H248.148V19.096ZM260.551 28.24C259.415 28.24 258.407 27.984 257.527 27.472C256.647 26.96 255.967 26.264 255.487 25.384C255.007 24.504 254.767 23.528 254.767 22.456C254.767 21.4 254.999 20.432 255.463 19.552C255.943 18.672 256.623 17.976 257.503 17.464C258.383 16.952 259.399 16.696 260.551 16.696C261.703 16.696 262.711 16.952 263.575 17.464C264.455 17.976 265.127 18.672 265.591 19.552C266.071 20.432 266.311 21.4 266.311 22.456C266.311 23.528 266.071 24.504 265.591 25.384C265.111 26.264 264.431 26.96 263.551 27.472C262.687 27.984 261.687 28.24 260.551 28.24ZM260.623 26.128C261.551 26.128 262.279 25.784 262.807 25.096C263.351 24.408 263.623 23.544 263.623 22.504C263.623 21.464 263.335 20.592 262.759 19.888C262.183 19.168 261.423 18.808 260.479 18.808C259.567 18.808 258.831 19.16 258.271 19.864C257.727 20.568 257.455 21.448 257.455 22.504C257.455 23.528 257.751 24.392 258.343 25.096C258.935 25.784 259.695 26.128 260.623 26.128ZM275.13 10.36H279.018C281.21 10.36 282.81 10.832 283.818 11.776C284.842 12.704 285.354 13.984 285.354 15.616C285.354 17.504 284.802 18.952 283.698 19.96C282.594 20.968 280.954 21.472 278.778 21.472H277.842V28H275.13V10.36ZM278.85 19.096C280.258 19.096 281.242 18.784 281.802 18.16C282.362 17.536 282.642 16.784 282.642 15.904C282.642 14.96 282.37 14.192 281.826 13.6C281.282 13.008 280.37 12.712 279.09 12.712H277.842V19.096H278.85ZM292.824 28.24C291.688 28.24 290.68 27.984 289.8 27.472C288.92 26.96 288.24 26.264 287.76 25.384C287.28 24.504 287.04 23.528 287.04 22.456C287.04 21.4 287.272 20.432 287.736 19.552C288.216 18.672 288.896 17.976 289.776 17.464C290.656 16.952 291.672 16.696 292.824 16.696C293.976 16.696 294.984 16.952 295.848 17.464C296.728 17.976 297.4 18.672 297.864 19.552C298.344 20.432 298.584 21.4 298.584 22.456C298.584 23.528 298.344 24.504 297.864 25.384C297.384 26.264 296.704 26.96 295.824 27.472C294.96 27.984 293.96 28.24 292.824 28.24ZM292.896 26.128C293.824 26.128 294.552 25.784 295.08 25.096C295.624 24.408 295.896 23.544 295.896 22.504C295.896 21.464 295.608 20.592 295.032 19.888C294.456 19.168 293.696 18.808 292.752 18.808C291.84 18.808 291.104 19.16 290.544 19.864C290 20.568 289.728 21.448 289.728 22.504C289.728 23.528 290.024 24.392 290.616 25.096C291.208 25.784 291.968 26.128 292.896 26.128ZM301.28 16.984H303.872V19.144C304.128 18.408 304.544 17.816 305.12 17.368C305.696 16.92 306.352 16.696 307.088 16.696C307.6 16.696 307.952 16.744 308.144 16.84L307.784 19.456C307.64 19.36 307.328 19.312 306.848 19.312C306.096 19.312 305.408 19.552 304.784 20.032C304.176 20.512 303.872 21.28 303.872 22.336V28H301.28V16.984Z" fill="white"/>
<path d="M1.694 42.83H9.284V44.964H4.136V49.54H8.14V51.696H4.136V59H1.694V42.83ZM15.7247 59.22C14.522 59.22 13.5173 58.9853 12.7107 58.516C11.904 58.032 11.31 57.394 10.9287 56.602C10.5473 55.7953 10.3567 54.9153 10.3567 53.962C10.3567 52.8913 10.5767 51.9527 11.0167 51.146C11.4713 50.3393 12.0947 49.7233 12.8867 49.298C13.6787 48.858 14.5733 48.638 15.5707 48.638C17.1253 48.638 18.2767 49.0707 19.0247 49.936C19.7873 50.7867 20.1687 51.9893 20.1687 53.544C20.1687 53.94 20.1467 54.3507 20.1027 54.776H12.8427C13.004 55.6707 13.3193 56.316 13.7887 56.712C14.2727 57.108 14.94 57.306 15.7907 57.306C16.4947 57.306 17.074 57.2473 17.5287 57.13C17.9833 57.0127 18.4013 56.8513 18.7827 56.646L19.5087 58.34C19.142 58.5747 18.6433 58.78 18.0127 58.956C17.382 59.132 16.6193 59.22 15.7247 59.22ZM17.8587 53.126C17.8733 52.2167 17.6753 51.5787 17.2647 51.212C16.854 50.8307 16.2673 50.64 15.5047 50.64C13.9647 50.64 13.0773 51.4687 12.8427 53.126H17.8587ZM22.8357 48.902H25.2997V59H22.8357V48.902ZM24.0457 47.01C23.591 47.01 23.2097 46.856 22.9017 46.548C22.5937 46.24 22.4397 45.8587 22.4397 45.404C22.4397 44.9933 22.5937 44.6413 22.9017 44.348C23.2097 44.0547 23.591 43.908 24.0457 43.908C24.4857 43.908 24.8597 44.0547 25.1677 44.348C25.4757 44.6413 25.6297 44.9933 25.6297 45.404C25.6297 45.8587 25.4757 46.24 25.1677 46.548C24.8743 46.856 24.5003 47.01 24.0457 47.01ZM29.4693 50.838H27.6873V48.902H29.4693V44.788L31.8673 44.26V48.902H34.1993V50.838H31.8673V59H29.4693V50.838ZM40.8384 59.22C39.797 59.22 38.873 58.9853 38.0664 58.516C37.2597 58.0467 36.6364 57.4087 36.1964 56.602C35.7564 55.7953 35.5364 54.9007 35.5364 53.918C35.5364 52.95 35.749 52.0627 36.1744 51.256C36.6144 50.4493 37.2377 49.8113 38.0444 49.342C38.851 48.8727 39.7824 48.638 40.8384 48.638C41.8944 48.638 42.8184 48.8727 43.6104 49.342C44.417 49.8113 45.033 50.4493 45.4584 51.256C45.8984 52.0627 46.1184 52.95 46.1184 53.918C46.1184 54.9007 45.8984 55.7953 45.4584 56.602C45.0184 57.4087 44.395 58.0467 43.5884 58.516C42.7964 58.9853 41.8797 59.22 40.8384 59.22ZM40.9044 57.284C41.755 57.284 42.4224 56.9687 42.9064 56.338C43.405 55.7073 43.6544 54.9153 43.6544 53.962C43.6544 53.0087 43.3904 52.2093 42.8624 51.564C42.3344 50.904 41.6377 50.574 40.7724 50.574C39.9364 50.574 39.2617 50.8967 38.7484 51.542C38.2497 52.1873 38.0004 52.994 38.0004 53.962C38.0004 54.9007 38.2717 55.6927 38.8144 56.338C39.357 56.9687 40.0537 57.284 40.9044 57.284ZM54.0923 48.902H56.3803V50.772C57.187 49.3493 58.4483 48.638 60.1643 48.638C61.587 48.638 62.7383 49.0927 63.6183 50.002C64.4983 50.8967 64.9383 52.1947 64.9383 53.896C64.9383 54.952 64.7183 55.8833 64.2783 56.69C63.853 57.4967 63.2663 58.12 62.5183 58.56C61.785 59 60.9637 59.22 60.0543 59.22C59.2037 59.22 58.463 59.0733 57.8323 58.78C57.2163 58.472 56.7323 58.0393 56.3803 57.482L56.4023 64.346H54.0923V48.902ZM59.5043 57.218C60.4577 57.218 61.191 56.9173 61.7043 56.316C62.2177 55.7 62.4743 54.9153 62.4743 53.962C62.4743 52.9647 62.2177 52.1727 61.7043 51.586C61.2057 50.9847 60.4723 50.684 59.5043 50.684C58.9763 50.684 58.4777 50.816 58.0083 51.08C57.5537 51.3293 57.187 51.696 56.9083 52.18C56.6443 52.6493 56.5123 53.1993 56.5123 53.83V53.984C56.5123 54.6147 56.6443 55.1793 56.9083 55.678C57.187 56.162 57.5537 56.5433 58.0083 56.822C58.463 57.086 58.9617 57.218 59.5043 57.218ZM72.1841 59.22C71.1427 59.22 70.2187 58.9853 69.4121 58.516C68.6054 58.0467 67.9821 57.4087 67.5421 56.602C67.1021 55.7953 66.8821 54.9007 66.8821 53.918C66.8821 52.95 67.0947 52.0627 67.5201 51.256C67.9601 50.4493 68.5834 49.8113 69.3901 49.342C70.1967 48.8727 71.1281 48.638 72.1841 48.638C73.2401 48.638 74.1641 48.8727 74.9561 49.342C75.7627 49.8113 76.3787 50.4493 76.8041 51.256C77.2441 52.0627 77.4641 52.95 77.4641 53.918C77.4641 54.9007 77.2441 55.7953 76.8041 56.602C76.3641 57.4087 75.7407 58.0467 74.9341 58.516C74.1421 58.9853 73.2254 59.22 72.1841 59.22ZM72.2501 57.284C73.1007 57.284 73.7681 56.9687 74.2521 56.338C74.7507 55.7073 75.0001 54.9153 75.0001 53.962C75.0001 53.0087 74.7361 52.2093 74.2081 51.564C73.6801 50.904 72.9834 50.574 72.1181 50.574C71.2821 50.574 70.6074 50.8967 70.0941 51.542C69.5954 52.1873 69.3461 52.994 69.3461 53.962C69.3461 54.9007 69.6174 55.6927 70.1601 56.338C70.7027 56.9687 71.3994 57.284 72.2501 57.284ZM79.9355 48.902H82.3115V50.882C82.5461 50.2073 82.9275 49.6647 83.4555 49.254C83.9835 48.8433 84.5848 48.638 85.2595 48.638C85.7288 48.638 86.0515 48.682 86.2275 48.77L85.8975 51.168C85.7655 51.08 85.4795 51.036 85.0395 51.036C84.3501 51.036 83.7195 51.256 83.1475 51.696C82.5901 52.136 82.3115 52.84 82.3115 53.808V59H79.9355V48.902ZM100.802 59.154C99.1303 59.154 97.6783 58.78 96.4463 58.032C95.2289 57.284 94.2976 56.2867 93.6523 55.04C93.0069 53.7787 92.6843 52.3927 92.6843 50.882C92.6843 49.2833 93.0289 47.8533 93.7183 46.592C94.4223 45.3307 95.4049 44.348 96.6663 43.644C97.9276 42.9253 99.3576 42.566 100.956 42.566C101.675 42.566 102.342 42.6467 102.958 42.808C103.589 42.9547 104.11 43.1307 104.52 43.336C104.931 43.5267 105.202 43.688 105.334 43.82L104.256 46.02C103.362 45.228 102.196 44.832 100.758 44.832C99.7463 44.832 98.8296 45.0813 98.0083 45.58C97.1869 46.0787 96.5416 46.79 96.0723 47.714C95.6029 48.638 95.3683 49.7087 95.3683 50.926C95.3683 52.0407 95.5736 53.0527 95.9843 53.962C96.4096 54.8713 97.0256 55.59 97.8323 56.118C98.6389 56.646 99.5996 56.91 100.714 56.91C102.005 56.91 103.252 56.5433 104.454 55.81L105.18 57.9C104.858 58.1933 104.264 58.4793 103.398 58.758C102.548 59.022 101.682 59.154 100.802 59.154ZM107.697 42.83H110.007V48.902L109.919 50.772C110.198 50.156 110.645 49.65 111.261 49.254C111.877 48.8433 112.596 48.638 113.417 48.638C114.459 48.638 115.258 48.858 115.815 49.298C116.373 49.7233 116.747 50.3247 116.937 51.102C117.128 51.8793 117.223 52.8913 117.223 54.138V59H114.869V54.116C114.869 53.2653 114.818 52.598 114.715 52.114C114.627 51.63 114.437 51.2633 114.143 51.014C113.865 50.7647 113.454 50.64 112.911 50.64C112.471 50.64 112.024 50.772 111.569 51.036C111.129 51.3 110.763 51.6887 110.469 52.202C110.176 52.7007 110.029 53.2947 110.029 53.984V59H107.697V42.83ZM120.176 48.902H122.552V50.882C122.786 50.2073 123.168 49.6647 123.696 49.254C124.224 48.8433 124.825 48.638 125.5 48.638C125.969 48.638 126.292 48.682 126.468 48.77L126.138 51.168C126.006 51.08 125.72 51.036 125.28 51.036C124.59 51.036 123.96 51.256 123.388 51.696C122.83 52.136 122.552 52.84 122.552 53.808V59H120.176V48.902ZM128.324 48.902H130.788V59H128.324V48.902ZM129.534 47.01C129.079 47.01 128.698 46.856 128.39 46.548C128.082 46.24 127.928 45.8587 127.928 45.404C127.928 44.9933 128.082 44.6413 128.39 44.348C128.698 44.0547 129.079 43.908 129.534 43.908C129.974 43.908 130.348 44.0547 130.656 44.348C130.964 44.6413 131.118 44.9933 131.118 45.404C131.118 45.8587 130.964 46.24 130.656 46.548C130.363 46.856 129.989 47.01 129.534 47.01ZM137.554 59.22C136.85 59.22 136.116 59.132 135.354 58.956C134.606 58.7653 134.07 58.5453 133.748 58.296L134.54 56.426C135.42 57.042 136.424 57.35 137.554 57.35C138.683 57.35 139.248 57.02 139.248 56.36C139.248 56.0667 139.13 55.8393 138.896 55.678C138.661 55.5167 138.243 55.326 137.642 55.106L136.806 54.798C135.926 54.446 135.229 54.028 134.716 53.544C134.202 53.0453 133.946 52.3927 133.946 51.586C133.946 50.662 134.305 49.9433 135.024 49.43C135.757 48.902 136.732 48.638 137.95 48.638C138.551 48.638 139.138 48.704 139.71 48.836C140.296 48.968 140.744 49.1367 141.052 49.342L140.194 51.234C140.003 51.0433 139.695 50.882 139.27 50.75C138.859 50.6033 138.397 50.53 137.884 50.53C136.842 50.53 136.322 50.8453 136.322 51.476C136.322 51.828 136.461 52.0993 136.74 52.29C137.018 52.466 137.473 52.664 138.104 52.884C138.162 52.8987 138.39 52.9793 138.786 53.126C139.724 53.4927 140.421 53.9107 140.876 54.38C141.33 54.8493 141.558 55.4507 141.558 56.184C141.558 57.1813 141.176 57.9367 140.414 58.45C139.666 58.9633 138.712 59.22 137.554 59.22ZM144.905 50.838H143.123V48.902H144.905V44.788L147.303 44.26V48.902H149.635V50.838H147.303V59H144.905V50.838ZM156.274 59.22C155.233 59.22 154.309 58.9853 153.502 58.516C152.695 58.0467 152.072 57.4087 151.632 56.602C151.192 55.7953 150.972 54.9007 150.972 53.918C150.972 52.95 151.185 52.0627 151.61 51.256C152.05 50.4493 152.673 49.8113 153.48 49.342C154.287 48.8727 155.218 48.638 156.274 48.638C157.33 48.638 158.254 48.8727 159.046 49.342C159.853 49.8113 160.469 50.4493 160.894 51.256C161.334 52.0627 161.554 52.95 161.554 53.918C161.554 54.9007 161.334 55.7953 160.894 56.602C160.454 57.4087 159.831 58.0467 159.024 58.516C158.232 58.9853 157.315 59.22 156.274 59.22ZM156.34 57.284C157.191 57.284 157.858 56.9687 158.342 56.338C158.841 55.7073 159.09 54.9153 159.09 53.962C159.09 53.0087 158.826 52.2093 158.298 51.564C157.77 50.904 157.073 50.574 156.208 50.574C155.372 50.574 154.697 50.8967 154.184 51.542C153.685 52.1873 153.436 52.994 153.436 53.962C153.436 54.9007 153.707 55.6927 154.25 56.338C154.793 56.9687 155.489 57.284 156.34 57.284ZM164.135 48.902H166.423V50.772C167.23 49.3493 168.491 48.638 170.207 48.638C171.63 48.638 172.781 49.0927 173.661 50.002C174.541 50.8967 174.981 52.1947 174.981 53.896C174.981 54.952 174.761 55.8833 174.321 56.69C173.896 57.4967 173.309 58.12 172.561 58.56C171.828 59 171.007 59.22 170.097 59.22C169.247 59.22 168.506 59.0733 167.875 58.78C167.259 58.472 166.775 58.0393 166.423 57.482L166.445 64.346H164.135V48.902ZM169.547 57.218C170.501 57.218 171.234 56.9173 171.747 56.316C172.261 55.7 172.517 54.9153 172.517 53.962C172.517 52.9647 172.261 52.1727 171.747 51.586C171.249 50.9847 170.515 50.684 169.547 50.684C169.019 50.684 168.521 50.816 168.051 51.08C167.597 51.3293 167.23 51.696 166.951 52.18C166.687 52.6493 166.555 53.1993 166.555 53.83V53.984C166.555 54.6147 166.687 55.1793 166.951 55.678C167.23 56.162 167.597 56.5433 168.051 56.822C168.506 57.086 169.005 57.218 169.547 57.218ZM177.629 42.83H179.939V48.902L179.851 50.772C180.13 50.156 180.577 49.65 181.193 49.254C181.809 48.8433 182.528 48.638 183.349 48.638C184.39 48.638 185.19 48.858 185.747 49.298C186.304 49.7233 186.678 50.3247 186.869 51.102C187.06 51.8793 187.155 52.8913 187.155 54.138V59H184.801V54.116C184.801 53.2653 184.75 52.598 184.647 52.114C184.559 51.63 184.368 51.2633 184.075 51.014C183.796 50.7647 183.386 50.64 182.843 50.64C182.403 50.64 181.956 50.772 181.501 51.036C181.061 51.3 180.694 51.6887 180.401 52.202C180.108 52.7007 179.961 53.2947 179.961 53.984V59H177.629V42.83ZM194.947 59.22C193.745 59.22 192.74 58.9853 191.933 58.516C191.127 58.032 190.533 57.394 190.151 56.602C189.77 55.7953 189.579 54.9153 189.579 53.962C189.579 52.8913 189.799 51.9527 190.239 51.146C190.694 50.3393 191.317 49.7233 192.109 49.298C192.901 48.858 193.796 48.638 194.793 48.638C196.348 48.638 197.499 49.0707 198.247 49.936C199.01 50.7867 199.391 51.9893 199.391 53.544C199.391 53.94 199.369 54.3507 199.325 54.776H192.065C192.227 55.6707 192.542 56.316 193.011 56.712C193.495 57.108 194.163 57.306 195.013 57.306C195.717 57.306 196.297 57.2473 196.751 57.13C197.206 57.0127 197.624 56.8513 198.005 56.646L198.731 58.34C198.365 58.5747 197.866 58.78 197.235 58.956C196.605 59.132 195.842 59.22 194.947 59.22ZM197.081 53.126C197.096 52.2167 196.898 51.5787 196.487 51.212C196.077 50.8307 195.49 50.64 194.727 50.64C193.187 50.64 192.3 51.4687 192.065 53.126H197.081ZM201.816 48.902H204.192V50.882C204.427 50.2073 204.808 49.6647 205.336 49.254C205.864 48.8433 206.466 48.638 207.14 48.638C207.61 48.638 207.932 48.682 208.108 48.77L207.778 51.168C207.646 51.08 207.36 51.036 206.92 51.036C206.231 51.036 205.6 51.256 205.028 51.696C204.471 52.136 204.192 52.84 204.192 53.808V59H201.816V48.902ZM225.348 59.22C224.145 59.22 223.14 58.9853 222.334 58.516C221.527 58.032 220.933 57.394 220.552 56.602C220.17 55.7953 219.98 54.9153 219.98 53.962C219.98 52.8913 220.2 51.9527 220.64 51.146C221.094 50.3393 221.718 49.7233 222.51 49.298C223.302 48.858 224.196 48.638 225.194 48.638C226.748 48.638 227.9 49.0707 228.648 49.936C229.41 50.7867 229.792 51.9893 229.792 53.544C229.792 53.94 229.77 54.3507 229.726 54.776H222.466C222.627 55.6707 222.942 56.316 223.412 56.712C223.896 57.108 224.563 57.306 225.414 57.306C226.118 57.306 226.697 57.2473 227.152 57.13C227.606 57.0127 228.024 56.8513 228.406 56.646L229.132 58.34C228.765 58.5747 228.266 58.78 227.636 58.956C227.005 59.132 226.242 59.22 225.348 59.22ZM227.482 53.126C227.496 52.2167 227.298 51.5787 226.888 51.212C226.477 50.8307 225.89 50.64 225.128 50.64C223.588 50.64 222.7 51.4687 222.466 53.126H227.482ZM241.987 51.454L240.975 49.166L240.513 51.454L239.017 59H236.575L239.919 42.83H240.183L244.627 51.564L245.947 54.49L247.267 51.564L251.623 42.83H251.865L255.341 59H252.921L251.293 51.454L250.809 49.166L249.929 51.454L246.013 59H245.881L241.987 51.454ZM262.063 59.22C261.022 59.22 260.098 58.9853 259.291 58.516C258.484 58.0467 257.861 57.4087 257.421 56.602C256.981 55.7953 256.761 54.9007 256.761 53.918C256.761 52.95 256.974 52.0627 257.399 51.256C257.839 50.4493 258.462 49.8113 259.269 49.342C260.076 48.8727 261.007 48.638 262.063 48.638C263.119 48.638 264.043 48.8727 264.835 49.342C265.642 49.8113 266.258 50.4493 266.683 51.256C267.123 52.0627 267.343 52.95 267.343 53.918C267.343 54.9007 267.123 55.7953 266.683 56.602C266.243 57.4087 265.62 58.0467 264.813 58.516C264.021 58.9853 263.104 59.22 262.063 59.22ZM262.129 57.284C262.98 57.284 263.647 56.9687 264.131 56.338C264.63 55.7073 264.879 54.9153 264.879 53.962C264.879 53.0087 264.615 52.2093 264.087 51.564C263.559 50.904 262.862 50.574 261.997 50.574C261.161 50.574 260.486 50.8967 259.973 51.542C259.474 52.1873 259.225 52.994 259.225 53.962C259.225 54.9007 259.496 55.6927 260.039 56.338C260.582 56.9687 261.278 57.284 262.129 57.284ZM269.88 48.902H272.212L272.234 50.75C272.513 50.134 272.953 49.628 273.554 49.232C274.156 48.836 274.86 48.638 275.666 48.638C276.708 48.638 277.507 48.858 278.064 49.298C278.622 49.7233 278.996 50.3247 279.186 51.102C279.377 51.8793 279.472 52.8913 279.472 54.138V59H277.096V54.204C277.096 52.928 276.972 52.0113 276.722 51.454C276.473 50.882 275.96 50.596 275.182 50.596C274.742 50.596 274.295 50.7353 273.84 51.014C273.386 51.278 273.004 51.6667 272.696 52.18C272.403 52.6933 272.256 53.2947 272.256 53.984V59H269.88V48.902ZM282.535 48.902H284.867L284.889 50.75C285.167 50.134 285.607 49.628 286.209 49.232C286.81 48.836 287.514 48.638 288.321 48.638C289.362 48.638 290.161 48.858 290.719 49.298C291.276 49.7233 291.65 50.3247 291.841 51.102C292.031 51.8793 292.127 52.8913 292.127 54.138V59H289.751V54.204C289.751 52.928 289.626 52.0113 289.377 51.454C289.127 50.882 288.614 50.596 287.837 50.596C287.397 50.596 286.949 50.7353 286.495 51.014C286.04 51.278 285.659 51.6667 285.351 52.18C285.057 52.6933 284.911 53.2947 284.911 53.984V59H282.535V48.902ZM295.365 48.902H297.829V59H295.365V48.902ZM296.575 47.01C296.12 47.01 295.739 46.856 295.431 46.548C295.123 46.24 294.969 45.8587 294.969 45.404C294.969 44.9933 295.123 44.6413 295.431 44.348C295.739 44.0547 296.12 43.908 296.575 43.908C297.015 43.908 297.389 44.0547 297.697 44.348C298.005 44.6413 298.159 44.9933 298.159 45.404C298.159 45.8587 298.005 46.24 297.697 46.548C297.404 46.856 297.03 47.01 296.575 47.01ZM304.595 51.586L305.145 50.794L302.703 50.86H300.965V48.902H308.819L304.265 56.338L303.715 57.174L306.091 57.086L308.643 57.042V59H299.997L304.595 51.586ZM315.84 59.22C314.637 59.22 313.633 58.9853 312.826 58.516C312.019 58.032 311.425 57.394 311.044 56.602C310.663 55.7953 310.472 54.9153 310.472 53.962C310.472 52.8913 310.692 51.9527 311.132 51.146C311.587 50.3393 312.21 49.7233 313.002 49.298C313.794 48.858 314.689 48.638 315.686 48.638C317.241 48.638 318.392 49.0707 319.14 49.936C319.903 50.7867 320.284 51.9893 320.284 53.544C320.284 53.94 320.262 54.3507 320.218 54.776H312.958C313.119 55.6707 313.435 56.316 313.904 56.712C314.388 57.108 315.055 57.306 315.906 57.306C316.61 57.306 317.189 57.2473 317.644 57.13C318.099 57.0127 318.517 56.8513 318.898 56.646L319.624 58.34C319.257 58.5747 318.759 58.78 318.128 58.956C317.497 59.132 316.735 59.22 315.84 59.22ZM317.974 53.126C317.989 52.2167 317.791 51.5787 317.38 51.212C316.969 50.8307 316.383 50.64 315.62 50.64C314.08 50.64 313.193 51.4687 312.958 53.126H317.974ZM332.633 59.22C331.724 59.22 330.881 59.0073 330.103 58.582C329.341 58.142 328.725 57.526 328.255 56.734C327.801 55.9273 327.573 54.9887 327.573 53.918C327.573 52.862 327.771 51.938 328.167 51.146C328.578 50.354 329.157 49.738 329.905 49.298C330.653 48.858 331.533 48.638 332.545 48.638C333.132 48.638 333.682 48.7407 334.195 48.946C334.709 49.1513 335.141 49.408 335.493 49.716C335.845 50.0093 336.08 50.3027 336.197 50.596L336.241 48.902H338.507V59H336.263L336.219 57.218C335.97 57.746 335.515 58.2153 334.855 58.626C334.195 59.022 333.455 59.22 332.633 59.22ZM333.029 57.24C333.865 57.24 334.569 56.954 335.141 56.382C335.713 55.7953 335.999 55.0327 335.999 54.094V53.94C335.999 53.3093 335.867 52.7447 335.603 52.246C335.339 51.7473 334.98 51.3587 334.525 51.08C334.071 50.8013 333.572 50.662 333.029 50.662C332.091 50.662 331.365 50.97 330.851 51.586C330.338 52.1873 330.081 52.972 330.081 53.94C330.081 54.9227 330.331 55.722 330.829 56.338C331.343 56.9393 332.076 57.24 333.029 57.24ZM341.901 42.83H344.255V59H341.901V42.83ZM351.087 59.22C349.694 59.22 348.733 58.8093 348.205 57.988C347.692 57.1667 347.435 56.0227 347.435 54.556V48.902H349.811V53.962C349.811 54.798 349.855 55.4507 349.943 55.92C350.046 56.3747 350.237 56.712 350.515 56.932C350.809 57.152 351.241 57.262 351.813 57.262C352.224 57.262 352.62 57.1447 353.001 56.91C353.383 56.6753 353.691 56.36 353.925 55.964C354.175 55.5533 354.299 55.106 354.299 54.622V48.902H356.653V59H354.717L354.453 57.526C354.087 58.098 353.625 58.5233 353.067 58.802C352.525 59.0807 351.865 59.22 351.087 59.22ZM359.814 48.902H362.146L362.168 50.75C362.447 50.134 362.887 49.628 363.488 49.232C364.089 48.836 364.793 48.638 365.6 48.638C366.641 48.638 367.441 48.858 367.998 49.298C368.555 49.7233 368.929 50.3247 369.12 51.102C369.311 51.8793 369.406 52.8913 369.406 54.138V59H367.03V54.204C367.03 52.928 366.905 52.0113 366.656 51.454C366.407 50.882 365.893 50.596 365.116 50.596C364.676 50.596 364.229 50.7353 363.774 51.014C363.319 51.278 362.938 51.6667 362.63 52.18C362.337 52.6933 362.19 53.2947 362.19 53.984V59H359.814V48.902ZM377.176 59.22C376.135 59.22 375.211 58.9853 374.404 58.516C373.598 58.0467 372.974 57.4087 372.534 56.602C372.094 55.7953 371.874 54.9007 371.874 53.918C371.874 52.95 372.087 52.0627 372.512 51.256C372.952 50.4493 373.576 49.8113 374.382 49.342C375.189 48.8727 376.12 48.638 377.176 48.638C378.232 48.638 379.156 48.8727 379.948 49.342C380.755 49.8113 381.371 50.4493 381.796 51.256C382.236 52.0627 382.456 52.95 382.456 53.918C382.456 54.9007 382.236 55.7953 381.796 56.602C381.356 57.4087 380.733 58.0467 379.926 58.516C379.134 58.9853 378.218 59.22 377.176 59.22ZM377.242 57.284C378.093 57.284 378.76 56.9687 379.244 56.338C379.743 55.7073 379.992 54.9153 379.992 53.962C379.992 53.0087 379.728 52.2093 379.2 51.564C378.672 50.904 377.976 50.574 377.11 50.574C376.274 50.574 375.6 50.8967 375.086 51.542C374.588 52.1873 374.338 52.994 374.338 53.962C374.338 54.9007 374.61 55.6927 375.152 56.338C375.695 56.9687 376.392 57.284 377.242 57.284ZM388.47 59.22C387.766 59.22 387.032 59.132 386.27 58.956C385.522 58.7653 384.986 58.5453 384.664 58.296L385.456 56.426C386.336 57.042 387.34 57.35 388.47 57.35C389.599 57.35 390.164 57.02 390.164 56.36C390.164 56.0667 390.046 55.8393 389.812 55.678C389.577 55.5167 389.159 55.326 388.558 55.106L387.722 54.798C386.842 54.446 386.145 54.028 385.632 53.544C385.118 53.0453 384.862 52.3927 384.862 51.586C384.862 50.662 385.221 49.9433 385.94 49.43C386.673 48.902 387.648 48.638 388.866 48.638C389.467 48.638 390.054 48.704 390.626 48.836C391.212 48.968 391.66 49.1367 391.968 49.342L391.11 51.234C390.919 51.0433 390.611 50.882 390.186 50.75C389.775 50.6033 389.313 50.53 388.8 50.53C387.758 50.53 387.238 50.8453 387.238 51.476C387.238 51.828 387.377 52.0993 387.656 52.29C387.934 52.466 388.389 52.664 389.02 52.884C389.078 52.8987 389.306 52.9793 389.702 53.126C390.64 53.4927 391.337 53.9107 391.792 54.38C392.246 54.8493 392.474 55.4507 392.474 56.184C392.474 57.1813 392.092 57.9367 391.33 58.45C390.582 58.9633 389.628 59.22 388.47 59.22ZM404.799 59.22C403.89 59.22 403.047 59.0073 402.269 58.582C401.507 58.142 400.891 57.526 400.421 56.734C399.967 55.9273 399.739 54.9887 399.739 53.918C399.739 52.3193 400.187 51.0433 401.081 50.09C401.976 49.122 403.186 48.638 404.711 48.638C405.562 48.638 406.339 48.8507 407.043 49.276C407.747 49.6867 408.224 50.1853 408.473 50.772L408.363 49.056V42.83H410.695V59H408.429L408.385 57.218C408.136 57.746 407.681 58.2153 407.021 58.626C406.361 59.022 405.621 59.22 404.799 59.22ZM405.195 57.218C406.031 57.218 406.735 56.932 407.307 56.36C407.879 55.7733 408.165 55.0107 408.165 54.072V53.918C408.165 53.2873 408.033 52.7227 407.769 52.224C407.505 51.7253 407.146 51.3367 406.691 51.058C406.237 50.7793 405.738 50.64 405.195 50.64C404.257 50.64 403.531 50.948 403.017 51.564C402.504 52.1653 402.247 52.95 402.247 53.918C402.247 54.9007 402.497 55.7 402.995 56.316C403.509 56.9173 404.242 57.218 405.195 57.218ZM418.555 59.22C417.514 59.22 416.59 58.9853 415.783 58.516C414.976 58.0467 414.353 57.4087 413.913 56.602C413.473 55.7953 413.253 54.9007 413.253 53.918C413.253 52.95 413.466 52.0627 413.891 51.256C414.331 50.4493 414.954 49.8113 415.761 49.342C416.568 48.8727 417.499 48.638 418.555 48.638C419.611 48.638 420.535 48.8727 421.327 49.342C422.134 49.8113 422.75 50.4493 423.175 51.256C423.615 52.0627 423.835 52.95 423.835 53.918C423.835 54.9007 423.615 55.7953 423.175 56.602C422.735 57.4087 422.112 58.0467 421.305 58.516C420.513 58.9853 419.596 59.22 418.555 59.22ZM418.621 57.284C419.472 57.284 420.139 56.9687 420.623 56.338C421.122 55.7073 421.371 54.9153 421.371 53.962C421.371 53.0087 421.107 52.2093 420.579 51.564C420.051 50.904 419.354 50.574 418.489 50.574C417.653 50.574 416.978 50.8967 416.465 51.542C415.966 52.1873 415.717 52.994 415.717 53.962C415.717 54.9007 415.988 55.6927 416.531 56.338C417.074 56.9687 417.77 57.284 418.621 57.284ZM435.637 59.22C434.757 59.22 433.884 59.066 433.019 58.758C432.154 58.45 431.53 58.1053 431.149 57.724L432.315 55.634C432.623 55.9127 433.1 56.206 433.745 56.514C434.405 56.8073 435.036 56.954 435.637 56.954C436.414 56.954 437.045 56.7707 437.529 56.404C438.028 56.0373 438.277 55.5313 438.277 54.886C438.277 54.3873 438.145 53.9547 437.881 53.588C437.617 53.2213 437.294 52.9207 436.913 52.686C436.532 52.4367 435.989 52.136 435.285 51.784C434.449 51.3733 433.877 51.0653 433.569 50.86C432.146 49.9067 431.435 48.5867 431.435 46.9C431.435 45.5067 431.897 44.4433 432.821 43.71C433.745 42.962 434.911 42.588 436.319 42.588C437.83 42.588 439.113 43.0207 440.169 43.886L439.003 45.888C438.724 45.5947 438.328 45.3453 437.815 45.14C437.316 44.92 436.781 44.81 436.209 44.81C435.476 44.81 434.896 44.9787 434.471 45.316C434.06 45.6387 433.855 46.1227 433.855 46.768C433.855 47.2227 433.987 47.6333 434.251 48C434.515 48.352 434.845 48.66 435.241 48.924C435.652 49.188 436.202 49.5107 436.891 49.892C437.551 50.2587 438.057 50.552 438.409 50.772C438.761 50.9773 439.091 51.2267 439.399 51.52C439.824 51.9013 440.169 52.356 440.433 52.884C440.697 53.412 440.829 53.9913 440.829 54.622C440.829 55.6047 440.602 56.4407 440.147 57.13C439.707 57.8193 439.091 58.34 438.299 58.692C437.522 59.044 436.634 59.22 435.637 59.22ZM448.098 59.22C446.895 59.22 445.89 58.9853 445.084 58.516C444.277 58.032 443.683 57.394 443.302 56.602C442.92 55.7953 442.73 54.9153 442.73 53.962C442.73 52.8913 442.95 51.9527 443.39 51.146C443.844 50.3393 444.468 49.7233 445.26 49.298C446.052 48.858 446.946 48.638 447.944 48.638C449.498 48.638 450.65 49.0707 451.398 49.936C452.16 50.7867 452.542 51.9893 452.542 53.544C452.542 53.94 452.52 54.3507 452.476 54.776H445.216C445.377 55.6707 445.692 56.316 446.162 56.712C446.646 57.108 447.313 57.306 448.164 57.306C448.868 57.306 449.447 57.2473 449.902 57.13C450.356 57.0127 450.774 56.8513 451.156 56.646L451.882 58.34C451.515 58.5747 451.016 58.78 450.386 58.956C449.755 59.132 448.992 59.22 448.098 59.22ZM450.232 53.126C450.246 52.2167 450.048 51.5787 449.638 51.212C449.227 50.8307 448.64 50.64 447.878 50.64C446.338 50.64 445.45 51.4687 445.216 53.126H450.232ZM455.033 48.902H457.365L457.387 50.75C457.665 50.134 458.105 49.628 458.707 49.232C459.308 48.836 460.012 48.638 460.819 48.638C461.86 48.638 462.659 48.858 463.217 49.298C463.774 49.7233 464.148 50.3247 464.339 51.102C464.529 51.8793 464.625 52.8913 464.625 54.138V59H462.249V54.204C462.249 52.928 462.124 52.0113 461.875 51.454C461.625 50.882 461.112 50.596 460.335 50.596C459.895 50.596 459.447 50.7353 458.993 51.014C458.538 51.278 458.157 51.6667 457.849 52.18C457.555 52.6933 457.409 53.2947 457.409 53.984V59H455.033V48.902ZM472.153 59.22C471.244 59.22 470.4 59.0073 469.623 58.582C468.86 58.142 468.244 57.526 467.775 56.734C467.32 55.9273 467.093 54.9887 467.093 53.918C467.093 52.862 467.291 51.938 467.687 51.146C468.098 50.354 468.677 49.738 469.425 49.298C470.173 48.858 471.053 48.638 472.065 48.638C472.652 48.638 473.202 48.7407 473.715 48.946C474.228 49.1513 474.661 49.408 475.013 49.716C475.365 50.0093 475.6 50.3027 475.717 50.596L475.761 48.902H478.027V59H475.783L475.739 57.218C475.49 57.746 475.035 58.2153 474.375 58.626C473.715 59.022 472.974 59.22 472.153 59.22ZM472.549 57.24C473.385 57.24 474.089 56.954 474.661 56.382C475.233 55.7953 475.519 55.0327 475.519 54.094V53.94C475.519 53.3093 475.387 52.7447 475.123 52.246C474.859 51.7473 474.5 51.3587 474.045 51.08C473.59 50.8013 473.092 50.662 472.549 50.662C471.61 50.662 470.884 50.97 470.371 51.586C469.858 52.1873 469.601 52.972 469.601 53.94C469.601 54.9227 469.85 55.722 470.349 56.338C470.862 56.9393 471.596 57.24 472.549 57.24ZM485.93 59.22C484.933 59.22 484.031 59.0073 483.224 58.582C482.432 58.142 481.801 57.5187 481.332 56.712C480.863 55.8907 480.628 54.93 480.628 53.83C480.628 52.7887 480.841 51.8793 481.266 51.102C481.706 50.31 482.315 49.7013 483.092 49.276C483.884 48.8507 484.793 48.638 485.82 48.638C486.597 48.638 487.265 48.7407 487.822 48.946C488.394 49.1367 488.841 49.3787 489.164 49.672L488.108 51.586C487.492 50.97 486.795 50.662 486.018 50.662C485.079 50.662 484.361 50.948 483.862 51.52C483.378 52.092 483.136 52.8547 483.136 53.808C483.136 54.8933 483.385 55.7367 483.884 56.338C484.397 56.9393 485.109 57.24 486.018 57.24C486.473 57.24 486.913 57.174 487.338 57.042C487.778 56.91 488.115 56.756 488.35 56.58L489.208 58.252C488.885 58.5013 488.431 58.7287 487.844 58.934C487.272 59.1247 486.634 59.22 485.93 59.22ZM493.098 59.22C492.658 59.22 492.284 59.0733 491.976 58.78C491.668 58.472 491.514 58.098 491.514 57.658C491.514 57.2033 491.661 56.8293 491.954 56.536C492.262 56.228 492.644 56.074 493.098 56.074C493.553 56.074 493.927 56.228 494.22 56.536C494.528 56.8293 494.682 57.2033 494.682 57.658C494.682 58.098 494.528 58.472 494.22 58.78C493.927 59.0733 493.553 59.22 493.098 59.22Z" fill="white"/>
<line x1="128" y1="27.5" x2="379.008" y2="27.5" stroke="white"/>
</svg>
